# xmcd
#
# Track frame offsets: 
#        150
#        18881
#        34167
#        53969
#        68384
#        86428
#        102477
#        124634
#        139368
#        153949
#        164087
#        177649
#
# Disc length: 2605 seconds
#
# Revision: 0
# Processed by: cddbd v1.5.2PL0 Copyright (c) Steve Scherf et al.
# Submitted via: ExactAudioCopyFreeDBPlugin 1.0
#
DISCID=9f0a2b0c
DTITLE=Turn On - Diamond In The Rough
DYEAR=2014
DGENRE=Blues
TTITLE0=1000 Gigs
TTITLE1=The River
TTITLE2=Dark Side Of My Soul
TTITLE3=Pack Of Lies
TTITLE4=Drifting
TTITLE5=I Got My Life Back
TTITLE6=Like A Wind
TTITLE7=When The Tears Have Dried
TTITLE8=Find Another Fool
TTITLE9=Under A Cajun Moon
TTITLE10=Snake In My Heart
TTITLE11=Diamond In The Rough
EXTD=
EXTT0=
EXTT1=
EXTT2=
EXTT3=
EXTT4=
EXTT5=
EXTT6=
EXTT7=
EXTT8=
EXTT9=
EXTT10=
EXTT11=
PLAYORDER=
